# xmcd
#
# Track frame offsets: 
#        150
#        25900
#        41757
#        63387
#        85065
#        103230
#        125665
#        145665
#        165242
#        183925
#        203562
#        222530
#        242270
#        261190
#        283612
#
# Disc length: 3986 seconds
#
# Revision: 34
# Processed by: cddbd v1.5.2PL0 Copyright (c) Steve Scherf et al.
# Submitted via: ExactAudioCopy v1.1
#
DISCID=d20f900f
DTITLE=Celine Dion - The Colour Of My Love
DYEAR=1993
DGENRE=Pop
TTITLE0=The Power Of Love
TTITLE1=Misled
TTITLE2=Think Twice
TTITLE3=Only One Road
TTITLE4=Everybody's Talkin' My Baby Down
TTITLE5=Next Plane Out
TTITLE6=Real Emotion
TTITLE7=When I Fall In Love (Featured In The Tristar Motion Picture ''
TTITLE7=Sleepless In Seattle'') (Performed By Celine Dion And Clive Gr
TTITLE7=iffin)
TTITLE8=Love Doesn't Ask Why
TTITLE9=Refuse To Dance
TTITLE10=I Remember L.A.
TTITLE11=No Living Without Loving You
TTITLE12=Lovin' Proof
TTITLE13=Just Walk Away
TTITLE14=The Colour Of My Love
EXTD=
EXTT0=
EXTT1=
EXTT2=
EXTT3=
EXTT4=
EXTT5=
EXTT6=
EXTT7=
EXTT8=
EXTT9=
EXTT10=
EXTT11=
EXTT12=
EXTT13=
EXTT14=
PLAYORDER=
